<svg width="56" height="32" viewBox="0 0 56 32" fill="none" xmlns="http://www.w3.org/2000/svg">
<path d="M0 10.812V16.44C1.9232 16.4387 3.82779 16.8166 5.60479 17.5521C7.38179 18.2876 8.99632 19.3663 10.356 20.7264C11.7153 22.0861 12.7934 23.7003 13.5285 25.4768C14.2635 27.2534 14.6412 29.1574 14.64 31.08H20.264C20.2589 25.7069 18.1225 20.5552 14.3234 16.7554C10.5244 12.9556 5.37315 10.8182 0 10.812H0Z" fill="#C8F840"/>
<path d="M28.1256 0.679932H19.2128C23.7216 3.53724 27.5421 7.35714 30.4 11.8655V2.95273C30.3996 2.3498 30.1598 1.77171 29.7333 1.34552C29.3068 0.919335 28.7286 0.679931 28.1256 0.679932Z" fill="#C8F840"/>
<path d="M5.6 0.679932H0V5.74713C6.71661 5.75412 13.1561 8.42532 17.9056 13.1746C22.655 17.9239 25.3264 24.3633 25.3336 31.0799H30.4V25.4799C29.2545 19.3252 26.272 13.6615 21.8452 9.23473C17.4184 4.80791 11.7548 1.82543 5.6 0.679932Z" fill="#C8F840"/>
<path d="M44.1848 4.02637H40.6152V22.0184H44.1848V4.02637Z" fill="#C8F840"/>
<path d="M57.3096 11.8217C56.7153 11.2815 56.0198 10.8646 55.2632 10.5952C53.638 10.0246 51.8668 10.0246 50.2416 10.5952C49.4847 10.8644 48.7888 11.2813 48.1944 11.8217C47.6114 12.3591 47.1457 13.0111 46.8264 13.7369C46.4963 14.5286 46.3264 15.3779 46.3264 16.2356C46.3264 17.0934 46.4963 17.9427 46.8264 18.7345C47.1445 19.4623 47.6103 20.1161 48.1944 20.6545C48.7878 21.1952 49.4833 21.6119 50.24 21.88C51.865 22.4518 53.6365 22.4518 55.2616 21.88C56.0185 21.6119 56.7143 21.1952 57.308 20.6545C57.8918 20.1159 58.3576 19.4621 58.676 18.7345C59.006 17.9427 59.1759 17.0934 59.1759 16.2356C59.1759 15.3779 59.006 14.5286 58.676 13.7369C58.357 13.0113 57.8918 12.3594 57.3096 11.8217ZM54.8584 18.3545C54.2804 18.8751 53.53 19.1633 52.752 19.1633C51.974 19.1633 51.2236 18.8751 50.6456 18.3545C50.1597 17.7547 49.8946 17.0063 49.8946 16.2344C49.8946 15.4626 50.1597 14.7142 50.6456 14.1145C51.2236 13.5938 51.974 13.3056 52.752 13.3056C53.53 13.3056 54.2804 13.5938 54.8584 14.1145C55.3442 14.7142 55.6093 15.4626 55.6093 16.2344C55.6093 17.0063 55.3442 17.7547 54.8584 18.3545Z" fill="#C8F840"/>
</svg>
