<svg width="41" height="34" viewBox="0 0 41 34" fill="none" xmlns="http://www.w3.org/2000/svg">
<g clip-path="url(#clip0_2224_313)">
<path d="M36.6311 34H4.36885C1.96262 34 0 32.0044 0 29.5578V18.2609H3.36066V29.5578C3.36066 30.1114 3.82443 30.5829 4.36885 30.5829H36.6311C37.1756 30.5829 37.6393 30.1114 37.6393 29.5578V18.2609H41V29.5578C41 32.0044 39.0374 34 36.6311 34ZM24.6134 17.9397V8.201H16.3866V17.9397H11.5943L20.5 26.8241L29.4057 17.9397H24.6134ZM24.6134 7.68844H16.3798V5.46734H24.6134V7.68844ZM24.6134 4.95477H16.3798V2.73367H24.6134V4.95477ZM24.6134 2.22111H16.3798V0H24.6134V2.22111Z" fill="#40BA8D"/>
</g>
<defs>
<clipPath id="clip0_2224_313">
<rect width="41" height="34" fill="white"/>
</clipPath>
</defs>
</svg>
