<svg width="80" height="81" viewBox="0 0 80 81" fill="none" xmlns="http://www.w3.org/2000/svg">
<g opacity="0.5">
<circle cx="40.2809" cy="40.5" r="39.7189" fill="white"/>
<g clip-path="url(#clip0_2224_291)">
<path d="M55.3437 19.8535C55.0485 19.8535 54.7609 19.8909 54.4808 19.9507C54.0267 20.0479 53.6104 20.2199 53.2319 20.4592C52.0663 21.1697 51.2866 22.4485 51.2866 23.9069C51.2866 24.2808 51.3396 24.6398 51.4305 24.9838C51.5137 25.2755 51.3926 25.5821 51.1277 25.7316L47.4188 27.8481C46.9041 28.1397 46.2759 28.1397 45.7612 27.8481L40.7807 25.0062C40.266 24.7146 39.9557 24.1761 39.9557 23.5853V19.9432C39.9557 19.6516 40.1525 19.3898 40.4401 19.3075C42.1431 18.814 43.3921 17.2584 43.3921 15.4112C43.3921 15.2691 43.392 15.1345 43.3693 14.9999C43.3239 14.5661 43.2104 14.1473 43.0363 13.7584C42.3929 12.3375 40.9548 11.3503 39.282 11.3503C37.0189 11.3503 35.1796 13.1676 35.1796 15.4112C35.1796 17.2883 36.4663 18.8663 38.2148 19.33C38.5024 19.4048 38.6992 19.674 38.6992 19.9731V23.7423C38.6992 24.3257 38.3813 24.8641 37.8742 25.1633L32.4093 28.2818C31.8946 28.5735 31.5842 29.112 31.5842 29.7028V36.8149C31.5842 37.3982 31.9021 37.9367 32.4093 38.2358L38.018 41.4367C38.5327 41.7283 38.843 42.2668 38.843 42.8576V49.2892C38.843 49.8725 39.1609 50.4109 39.668 50.7101L45.2768 53.9109C45.7915 54.2026 46.1018 54.741 46.1018 55.3318V56.7976C46.1018 57.0968 45.8974 57.3511 45.6098 57.4258C43.8765 57.897 42.6049 59.4675 42.6049 61.3371C42.6049 62.1598 42.8546 62.9301 43.2785 63.5658C43.5132 63.9173 43.8084 64.2388 44.1414 64.5006C44.8377 65.054 45.7309 65.3905 46.6922 65.3905C48.8872 65.3905 50.7265 63.6555 50.8098 61.4867C50.8855 59.5647 49.6063 57.9269 47.8351 57.4258C47.5475 57.3436 47.3507 57.0893 47.3507 56.7976V54.6064C47.3507 54.0231 47.0328 53.4846 46.5257 53.1855L40.9169 49.9847C40.4022 49.693 40.0919 49.1545 40.0919 48.5637V42.8426C40.0919 42.2593 40.4098 41.7208 40.9169 41.4217L46.5257 38.2209C47.0404 37.9292 47.3507 37.3907 47.3507 36.7999V30.2412C47.3507 29.6579 47.6686 29.1194 48.1757 28.8203L51.7938 26.7562C52.0511 26.6141 52.369 26.6515 52.581 26.8534C53.3152 27.5265 54.2991 27.9453 55.3815 27.9453C57.8642 27.9453 59.8322 25.769 59.4386 23.2488C59.1282 21.2445 57.3873 19.8161 55.3361 19.831L55.3437 19.8535ZM45.2768 37.5254L40.2887 40.3672C39.774 40.6589 39.1458 40.6589 38.6311 40.3672L33.643 37.5254C33.1283 37.2337 32.818 36.6952 32.818 36.1044V30.4207C32.818 29.8374 33.1359 29.2989 33.643 28.9998L38.6235 26.1579C39.1382 25.8663 39.7664 25.8663 40.2811 26.1579L45.2692 28.9998C45.7839 29.2914 46.0942 29.8299 46.0942 30.4207V36.1044C46.0942 36.6878 45.7763 37.2262 45.2692 37.5254H45.2768Z" fill="#666666"/>
<path d="M9.17969 47.7336C8.80123 47.5466 8.50603 47.2774 8.2941 46.9409C8.08216 46.6043 7.9762 46.2229 7.9762 45.7892C7.9762 45.3554 8.08216 44.9815 8.2941 44.6449C8.50603 44.3084 8.80123 44.0466 9.17969 43.8597C9.55814 43.6727 9.98958 43.5755 10.474 43.5755C10.9584 43.5755 11.3899 43.6802 11.7532 43.8896C12.1089 44.099 12.3663 44.3907 12.5177 44.7571L11.3369 45.3479C11.1401 44.959 10.8525 44.7721 10.474 44.7721C10.2015 44.7721 9.97444 44.8618 9.79278 45.0413C9.61113 45.2208 9.5203 45.4676 9.5203 45.7892C9.5203 46.1107 9.61113 46.365 9.79278 46.5445C9.97444 46.724 10.2015 46.8212 10.474 46.8212C10.8525 46.8212 11.1401 46.6268 11.3369 46.2454L12.5177 46.8362C12.3663 47.2026 12.1165 47.4943 11.7532 47.7037C11.3974 47.9131 10.966 48.0178 10.474 48.0178C9.98201 48.0178 9.56571 47.9206 9.17969 47.7336Z" fill="#666666"/>
<path d="M17.6041 47.9505V45.6919L16.4914 47.5691H15.8405L14.7581 45.662V47.9505H13.3881V43.6578H14.9927L16.2038 45.9013L17.5359 43.6578H18.9741V47.9505H17.6116H17.6041Z" fill="#666666"/>
<path d="M23.667 44.0691C24.0455 44.3907 24.2347 44.8918 24.2347 45.5648V47.9505H22.8117V47.3971C22.5922 47.8159 22.1607 48.0253 21.5249 48.0253C21.1919 48.0253 20.8967 47.9655 20.6545 47.8533C20.4047 47.7336 20.2231 47.5766 20.0944 47.3821C19.9657 47.1877 19.9052 46.9558 19.9052 46.7016C19.9052 46.2977 20.0641 45.9762 20.382 45.7518C20.6999 45.5274 21.1843 45.4153 21.8428 45.4153H22.7057C22.6754 44.9591 22.3727 44.7347 21.7823 44.7347C21.5704 44.7347 21.366 44.7646 21.1465 44.8319C20.927 44.8992 20.7529 44.989 20.6015 45.1086L20.0868 44.0841C20.329 43.927 20.6166 43.7999 20.9648 43.7176C21.313 43.6279 21.6536 43.583 22.0018 43.583C22.7209 43.583 23.2734 43.7475 23.6519 44.0691H23.667ZM22.4257 46.9409C22.5619 46.8586 22.6527 46.7315 22.7133 46.567V46.193H22.0548C21.6082 46.193 21.3887 46.3351 21.3887 46.6268C21.3887 46.7614 21.4417 46.8661 21.5401 46.9409C21.6385 47.0232 21.7823 47.0605 21.9564 47.0605C22.1305 47.0605 22.2894 47.0157 22.4181 46.9334L22.4257 46.9409Z" fill="#666666"/>
<path d="M29.2075 43.8522C29.533 44.0317 29.7904 44.2934 29.9796 44.63C30.1688 44.9665 30.2672 45.3554 30.2672 45.7966C30.2672 46.2379 30.1688 46.6268 29.9796 46.9633C29.7904 47.2998 29.533 47.5541 29.2075 47.7411C28.8821 47.9206 28.5263 48.0178 28.1252 48.0178C27.618 48.0178 27.2169 47.8682 26.9141 47.5691V49.4836H25.3927V43.6503H26.846V44.0766C27.126 43.7475 27.5575 43.5755 28.1327 43.5755C28.5263 43.5755 28.8896 43.6652 29.2151 43.8522H29.2075ZM28.4658 46.5445C28.6399 46.365 28.7231 46.1107 28.7231 45.7966C28.7231 45.4825 28.6399 45.2283 28.4658 45.0488C28.2917 44.8693 28.0722 44.7721 27.8072 44.7721C27.5423 44.7721 27.3228 44.8618 27.1487 45.0488C26.9746 45.2283 26.8914 45.4825 26.8914 45.7966C26.8914 46.1107 26.9746 46.365 27.1487 46.5445C27.3228 46.724 27.5423 46.8212 27.8072 46.8212C28.0722 46.8212 28.2917 46.7315 28.4658 46.5445Z" fill="#666666"/>
<path d="M34.9526 44.8469H33.5599V47.943H32.046V44.8469H30.6458V43.6503H34.9601V44.8469H34.9526Z" fill="#666666"/>
<path d="M44.6788 47.7336C44.3079 47.5466 44.0127 47.2774 43.8008 46.9409C43.5889 46.6043 43.4829 46.2229 43.4829 45.7892C43.4829 45.3554 43.5889 44.989 43.8008 44.6449C44.0127 44.3084 44.3004 44.0466 44.6788 43.8597C45.0497 43.6727 45.4736 43.5755 45.9429 43.5755C46.4122 43.5755 46.836 43.6727 47.2069 43.8597C47.5778 44.0466 47.873 44.3084 48.0849 44.6449C48.2969 44.9815 48.3953 45.3629 48.3953 45.7892C48.3953 46.2154 48.2893 46.5968 48.0849 46.9409C47.873 47.2774 47.5854 47.5466 47.2069 47.7336C46.8285 47.9206 46.4122 48.0178 45.9429 48.0178C45.4736 48.0178 45.0573 47.9206 44.6864 47.7336H44.6788ZM46.5938 46.552C46.7679 46.3725 46.8512 46.1182 46.8512 45.7966C46.8512 45.4751 46.7679 45.2283 46.5938 45.0488C46.4197 44.8693 46.2002 44.7795 45.9353 44.7795C45.6704 44.7795 45.4509 44.8693 45.2768 45.0488C45.1027 45.2283 45.0194 45.4751 45.0194 45.7966C45.0194 46.1182 45.1027 46.3725 45.2768 46.552C45.4509 46.7315 45.6704 46.8287 45.9353 46.8287C46.2002 46.8287 46.4197 46.7389 46.5938 46.552Z" fill="#666666"/>
<path d="M50.3027 47.7336C49.9243 47.5466 49.6291 47.2774 49.4171 46.9409C49.2052 46.6043 49.0992 46.2229 49.0992 45.7892C49.0992 45.3554 49.2052 44.9815 49.4171 44.6449C49.6291 44.3084 49.9243 44.0466 50.3027 43.8597C50.6812 43.6727 51.1126 43.5755 51.5971 43.5755C52.0815 43.5755 52.5129 43.6802 52.8762 43.8896C53.232 44.099 53.4893 44.3907 53.6407 44.7571L52.4599 45.3479C52.2631 44.959 51.9755 44.7721 51.5971 44.7721C51.3246 44.7721 51.0975 44.8618 50.9158 45.0413C50.7342 45.2208 50.6433 45.4676 50.6433 45.7892C50.6433 46.1107 50.7342 46.365 50.9158 46.5445C51.0975 46.724 51.3246 46.8212 51.5971 46.8212C51.9755 46.8212 52.2631 46.6268 52.4599 46.2454L53.6407 46.8362C53.4893 47.2026 53.2395 47.4943 52.8762 47.7037C52.5205 47.9131 52.089 48.0178 51.5971 48.0178C51.1051 48.0178 50.6888 47.9206 50.3027 47.7336Z" fill="#666666"/>
<path d="M58.8179 46.709C58.8179 47.0979 58.6665 47.3971 58.3638 47.6139C58.061 47.8308 57.6069 47.943 57.0165 47.943H54.5717V43.6503H56.9029C57.4706 43.6503 57.9096 43.7475 58.22 43.942C58.5303 44.1364 58.6893 44.4131 58.6893 44.7646C58.6893 44.974 58.6363 45.1535 58.5303 45.3105C58.4243 45.4676 58.273 45.5947 58.0762 45.6919C58.5757 45.8565 58.8255 46.193 58.8255 46.709H58.8179ZM55.9265 45.3779H56.7591C57.1149 45.3779 57.289 45.2507 57.289 44.989C57.289 44.7272 57.1149 44.615 56.7591 44.615H55.9265V45.3779ZM57.4252 46.5744C57.4252 46.3127 57.2436 46.1781 56.8878 46.1781H55.9265V46.9708H56.8727C57.2436 46.9708 57.4252 46.8362 57.4252 46.5744Z" fill="#666666"/>
<path d="M59.9835 42.9473C59.8095 42.7903 59.7262 42.6033 59.7262 42.3789C59.7262 42.1546 59.8095 41.9601 59.9835 41.8106C60.1576 41.6535 60.3771 41.5787 60.6572 41.5787C60.9373 41.5787 61.1568 41.6535 61.3308 41.7956C61.5049 41.9377 61.5882 42.1247 61.5882 42.3565C61.5882 42.5883 61.5049 42.7903 61.3308 42.9473C61.1568 43.1044 60.9373 43.1791 60.6572 43.1791C60.3771 43.1791 60.1576 43.1044 59.9835 42.9473ZM59.8927 43.6503H61.4141V47.943H59.8927V43.6503Z" fill="#666666"/>
<path d="M66.6368 44.8469H65.2441V47.943H63.7303V44.8469H62.33V43.6503H66.6444V44.8469H66.6368Z" fill="#666666"/>
<path d="M70.9588 44.0691C71.3373 44.3907 71.5265 44.8918 71.5265 45.5648V47.9505H70.1035V47.3971C69.884 47.8159 69.4526 48.0253 68.8168 48.0253C68.4837 48.0253 68.1885 47.9655 67.9463 47.8533C67.6965 47.7336 67.5149 47.5766 67.3862 47.3821C67.2575 47.1877 67.197 46.9558 67.197 46.7016C67.197 46.2977 67.3559 45.9762 67.6738 45.7518C67.9917 45.5274 68.4761 45.4153 69.1347 45.4153H69.9975C69.9673 44.9591 69.6645 44.7347 69.0741 44.7347C68.8622 44.7347 68.6578 44.7646 68.4383 44.8319C68.2188 44.8992 68.0447 44.989 67.8933 45.1086L67.3786 44.0841C67.6208 43.927 67.9085 43.7999 68.2566 43.7176C68.6048 43.6279 68.9454 43.583 69.2936 43.583C70.0127 43.583 70.5652 43.7475 70.9437 44.0691H70.9588ZM69.7175 46.9409C69.8537 46.8586 69.9445 46.7315 70.0051 46.567V46.193H69.3466C68.9 46.193 68.6805 46.3351 68.6805 46.6268C68.6805 46.7614 68.7335 46.8661 68.8319 46.9409C68.9303 47.0232 69.0741 47.0605 69.2482 47.0605C69.4223 47.0605 69.5812 47.0157 69.7099 46.9334L69.7175 46.9409Z" fill="#666666"/>
</g>
</g>
<defs>
<clipPath id="clip0_2224_291">
<rect width="63.5503" height="54.0177" fill="white" transform="translate(7.9762 11.3728)"/>
</clipPath>
</defs>
</svg>
